<svg width="26" height="23" viewBox="0 0 26 23" fill="none" xmlns="http://www.w3.org/2000/svg">
<path d="M21.126 8.9848C21.126 10.9675 20.3693 12.799 19.0946 14.285L25.5239 19.7579C26.1586 20.2979 26.1586 21.1747 25.5239 21.7147C24.8891 22.2546 23.8581 22.2546 23.2234 21.7147L16.7941 16.2417C15.0472 17.3303 12.894 17.9696 10.563 17.9696C4.72796 17.9696 0 13.948 0 8.9848C0 4.02156 4.72796 0 10.563 0C16.398 0 21.126 4.02156 21.126 8.9848ZM10.563 15.205C14.6003 15.205 17.8758 12.4189 17.8758 8.9848C17.8758 5.5507 14.6003 2.76455 10.563 2.76455C6.5257 2.76455 3.25015 5.5507 3.25015 8.9848C3.25015 12.4189 6.5257 15.205 10.563 15.205Z" fill="#2CDA9D"/>
</svg>
