<svg width="271" height="94" viewBox="0 0 271 94" fill="none" xmlns="http://www.w3.org/2000/svg">
<path d="M0 77.5251H8.68135V94H0V77.5251Z" fill="#2CDA9D"/>
<path d="M24.8395 25.7733H33.5208V94H24.8395V25.7733Z" fill="#2CDA9D"/>
<path d="M49.679 85.1731H58.3603V94H49.679V85.1731Z" fill="#2CDA9D"/>
<path d="M74.5184 21.5803H83.1998V94H74.5184V21.5803Z" fill="#2CDA9D"/>
<path d="M99.3579 70.0925H108.039V94H99.3579V70.0925Z" fill="#2CDA9D"/>
<path d="M124.197 64.0438H132.879V94H124.197V64.0438Z" fill="#2CDA9D"/>
<path d="M149.037 7.2276H157.718V94H149.037V7.2276Z" fill="#2CDA9D"/>
<path d="M173.876 38.9266H182.558V94H173.876V38.9266Z" fill="#2CDA9D"/>
<path d="M198.716 87.5515H207.397V94H198.716V87.5515Z" fill="#2CDA9D"/>
<path d="M223.555 8.94992H232.237V94H223.555V8.94992Z" fill="#2CDA9D"/>
<path d="M248.395 39.3059H257.076V94H248.395V39.3059Z" fill="#2CDA9D"/>
<path d="M10.509 29.7921H19.3057V94H10.509V29.7921Z" fill="#FEFFFF"/>
<path d="M35.6785 6.28444H44.4751V94H35.6785V6.28444Z" fill="#FEFFFF"/>
<path d="M60.8479 49.5783H69.6446V94H60.8479V49.5783Z" fill="#FEFFFF"/>
<path d="M86.0173 0H94.814V94H86.0173V0Z" fill="#FEFFFF"/>
<path d="M111.187 66.5761H119.983V94H111.187V66.5761Z" fill="#FEFFFF"/>
<path d="M136.356 23.1181H145.153V94H136.356V23.1181Z" fill="#FEFFFF"/>
<path d="M161.526 28.849H170.322V94H161.526V28.849Z" fill="#FEFFFF"/>
<path d="M186.695 17.8999H195.492V94H186.695V17.8999Z" fill="#FEFFFF"/>
<path d="M211.864 17.6641H220.661V94H211.864V17.6641Z" fill="#FEFFFF"/>
<path d="M237.034 20.7089H245.831V94H237.034V20.7089Z" fill="#FEFFFF"/>
<path d="M262.203 82.077H271V94H262.203V82.077Z" fill="#FEFFFF"/>
</svg>
